<?xml version="1.0" encoding="UTF-8"?>
<!DOCTYPE svg PUBLIC "-//W3C//DTD SVG 1.1//EN" "http://www.w3.org/Graphics/SVG/1.1/DTD/svg11.dtd">
<!-- Creator: CorelDRAW -->
<svg xmlns="http://www.w3.org/2000/svg" xml:space="preserve" width="254mm" height="254mm" version="1.1" style="shape-rendering:geometricPrecision; text-rendering:geometricPrecision; image-rendering:optimizeQuality; fill-rule:evenodd; clip-rule:evenodd"
viewBox="0 0 25400 25400"
 xmlns:xlink="http://www.w3.org/1999/xlink"
 xmlns:xodm="http://www.corel.com/coreldraw/odm/2003">
 <defs>
  <style type="text/css">
   <![CDATA[
    .fil0 {fill:#FFFFFF}
   ]]>
  </style>
 </defs>
 <g id="Layer_x0020_1">
  <metadata id="CorelCorpID_0Corel-Layer"/>
  <g id="_2713966170400">
   <path class="fil0" d="M852.76 14117.84l0 18.65c0.14,389.36 4.53,642.62 34.94,1032.71 22.69,291.06 64.62,596.76 113.99,883.29 117.39,681.43 315.7,1342.13 587.65,1976.73l183.51 395.25c216.47,432.93 463.11,856.73 751.44,1243.09 110.93,148.64 220.76,300.79 342.79,440.77 15.21,17.46 16.27,22.54 31.55,39.68 112.18,125.86 218.78,255.73 338.23,374.1l66.65 75.82c46.03,49.77 94.09,93.84 142.57,142.36 61.71,61.73 156.44,157.42 225.52,210.77 30.46,23.52 45.39,46.24 73.67,68.8l151.37 133.57c106.13,85.22 205.03,174.33 314.21,255.66 362.15,269.79 802.92,587.83 1206.82,787.68l471.85 240.5c161.6,81.25 336.88,146.39 501.83,219.4 153.4,67.87 465.34,182.18 626.82,227.98 222.41,63.09 435.7,139.66 664.71,190.08l473.48 105.29c241.92,48.38 482.77,88.78 735.19,119.61 164.74,20.11 351.04,47.44 518.16,51.71 123.75,3.16 275.74,25.6 400.24,27.15 47.2,0.58 95.64,-0.21 142.94,-0.47 59.94,-0.35 80.81,8.73 133.09,9.37l525.7 -9.26c185.69,0.05 559.19,-24.59 736.5,-47.06 340.76,-43.19 701.07,-83.23 1028.83,-146.51l645.47 -138.09c46.88,-9.87 105.43,-24.17 156.73,-39.16 350.27,-102.38 711.11,-186.28 1052.69,-318.56l568.52 -215.03c190.04,-75.98 366.8,-154.77 548.13,-235.44 84.26,-37.47 177.25,-89.95 259.58,-123.28 83.13,-33.66 182.86,-85.69 262.96,-128.83l255.1 -136.69c48.15,-23.98 80.7,-43.06 127.74,-68.15l1089.26 -673.75 457.94 -325.62c40.77,-30.75 72.38,-54.54 110.7,-85.2 38.02,-30.41 71.99,-53.32 110.84,-85.05 38.37,-31.33 71.4,-54.29 110.19,-85.7 38.48,-31.15 70.74,-57.49 108.5,-87.39 147.29,-116.67 281.38,-236.63 425.92,-357.64l409.6 -373.97c67.04,-56.05 421.87,-412.92 482.11,-488.43l732.63 -834.5c30.19,-37.88 56.5,-71.32 86.71,-109.18 203.12,-254.61 400.19,-519.82 579.97,-791.26 207.67,-313.57 502.58,-767.96 664.79,-1098.23l201.84 -385.83c254.21,-508.03 523.55,-1141.42 679.44,-1671.25 15.87,-53.93 33.3,-95.48 47.74,-148.16 85.47,-311.9 180.43,-605.75 244.13,-931.2 66.94,-342.01 122.51,-651.9 170.6,-1004.75 16.25,-119.28 25.91,-238.62 37.96,-353.83 12.69,-121.54 13.78,-248.77 26.82,-364.95 7.01,-62.39 0.09,-131.99 7.78,-188.12 21.84,-159.37 -15.38,-882.49 -15.38,-1066.05 -39.45,3.28 -369.47,112.47 -454.09,133.58 -41.14,10.26 -118.7,32.13 -160.29,35.59 0,44.5 8.68,49.03 9.25,97.59l8.55 312c0,410.69 -5.15,700.62 -36.2,1112.43 -7.87,104.56 -23.45,220.81 -36.66,328.41 -12.78,104.11 -27.47,213.13 -45.41,319.66 -67.45,400.51 -156.08,814.77 -262.77,1206.41 -130.41,478.72 -293.35,915.87 -474.93,1359.32 -181.39,442.99 -431.12,937.5 -672.72,1339.6l-649.06 998.21 -686.7 871.52c-68.11,80.51 -154.12,165.08 -216.37,246.65 -28.51,37.35 -61.69,60.67 -90.36,96.61 -78.76,98.72 -488.47,512.86 -544.46,559.67l-137.43 129.68c-21.96,21.14 -32.1,24.24 -53.72,44.23 -125.75,116.32 -252.3,235.73 -386.24,343.9l-198.4 166.66c-238.17,188.32 -476.22,383.62 -728.05,554.15 -40.15,27.18 -69.44,49.29 -110.5,76.49 -296.74,196.59 -588.61,394.88 -900.15,569.02l-1088.95 558.32c-209.08,103.98 -558.97,240.43 -782.63,321.48 -418.55,151.69 -828.07,283.65 -1263.63,392.55 -482.48,120.62 -1029.45,224.32 -1552.69,281.55 -55.65,6.09 -113.67,10.85 -161.17,16.91 -65.3,8.32 -108.34,5.76 -174.25,12.74 -317.2,33.59 -684.27,34.26 -1016.42,34.26 -179.4,0 -339.38,-16.32 -507.83,-17.51l-248.44 -18.69c-934.93,-70.47 -1962.99,-333.32 -2791.33,-681.28l-364.29 -161.05c-62.63,-31.5 -118.36,-54.52 -181.06,-86.07 -63.83,-32.12 -110.62,-59.88 -175.09,-92.02 -176.18,-87.8 -342.78,-188.96 -509.72,-291.66 -362.3,-222.9 -721.41,-477.25 -1038.72,-759.92 -152.6,-135.94 -305.08,-269.18 -449.8,-413.9 -86.62,-86.61 -311.45,-319.9 -385.1,-416.27l-122.68 -144.44c-209.67,-240.4 -388.95,-503.94 -566.52,-769.1 -20.32,-30.35 -32.45,-52.22 -51.55,-82.01l-248.01 -419.8c-132.12,-228.54 -249.86,-472.36 -352.07,-716.43 -246.59,-588.87 -447.5,-1211.67 -554.59,-1849.52 -122.11,-727.36 -143.63,-1110.94 -143.63,-1859.8 0,-738.85 126.01,-1563.91 302.75,-2270.55 25.09,-100.35 53.85,-199.71 78.26,-295.7 49.4,-194.22 110.99,-374.47 174.41,-564.63 106.26,-318.68 225.23,-626.09 361.56,-929.55 19.76,-44 35.09,-84.52 56.51,-130.48 80.35,-172.43 157,-330.4 240.43,-498.6l127.68 -237.4c22.89,-42.63 41,-73.89 62.26,-115.81 101.87,-200.83 229.93,-388.45 344.19,-581.84l603.92 -874.16c130.18,-173.56 263.53,-347.02 406.33,-510.8l386.91 -441.18c18.17,-18.37 31.14,-30.24 49.32,-48.62l931.84 -911.32c137.36,-106.24 263.91,-230.21 400.69,-338.35 172.46,-136.36 337.16,-274.62 518.01,-399.12 292.63,-201.48 580.26,-409.84 885.57,-592.51l949.27 -528.81c292.36,-146.51 592.95,-281.11 897.2,-402.79 177.52,-71.01 354.31,-143.11 535.95,-203.1l558.64 -180.4c196.56,-58.36 382.03,-113.03 580.94,-158.1 205.12,-46.49 398.47,-89.31 608.19,-130.86 303.8,-60.19 648.07,-107.88 963.89,-140.23 960.34,-98.36 1993,-56.59 2915.38,109.19 740.47,133.09 1440.25,359.32 2123.05,663.94l166.15 74.28c135.53,62.8 272,129.08 399.84,205.63 55.38,33.16 104.29,56.13 160.27,89.04 377.45,221.88 737.96,463.48 1079.99,736.46 27.64,22.04 41.07,35.67 72.41,52.25 63.87,-120.7 250.92,-325.44 349.9,-442.57 22.38,-26.48 41.71,-30.99 50.78,-64.97 -41.12,-10.98 -110.31,-78.92 -143.68,-105.62 -420,-335.86 -924.56,-655.57 -1408.6,-897.57 -60.96,-30.48 -111.2,-55.57 -172.14,-86.07 -658.95,-329.72 -1368,-559.41 -2084.68,-729.04 -379.78,-89.87 -1063.72,-202.57 -1444.4,-220.67 -108.13,-5.13 -281.15,-7.94 -371.47,-20.31 -74.77,-10.24 -164.87,-3.57 -252.04,-6.18 -46.4,-1.39 -60.69,-9.62 -115.25,-9.4l-516.66 9.11c-311.37,-0.38 -767.84,51.79 -1087.04,88.29 -973.33,111.29 -1907.87,371.54 -2822.89,703.14 -235.65,85.4 -463.55,190.63 -694.74,284.71l-402.42 185.27c-547.84,275.43 -850.98,448.56 -1382.31,772.49l-237.03 154.74c-233.73,155.39 -461.08,322.15 -685.13,490.21l-220.09 171.7c-143.79,114.83 -472.92,376.58 -586.81,490.59l-102.1 93.79c-22.07,21.97 -31.62,25.14 -53.52,44.42 -73.21,64.48 -184.82,185.64 -249.78,239.95 -64,53.5 -474.31,462.92 -535.38,542.02l-234.53 255.19c-204.01,219.29 -495.08,589.01 -659.73,809.45l-83.88 112.01c-30.18,40.48 -53.72,70.41 -83.02,112.88 -28.47,41.24 -54.3,73.38 -81.95,113.94l-467.59 707.75c-26.51,44.45 -48.42,77.46 -74.55,121.34 -350.27,588.2 -652.45,1198.37 -907.18,1835.28 -76.31,190.79 -143.63,375.4 -209.75,573.83l-184.82 598.74c-60.05,204.19 -106.09,411.37 -155.89,627.66 -102.18,443.8 -160.7,897.12 -208.84,1358.28 -12.74,121.9 -13.74,248.87 -26.78,365.02 -7.62,67.9 -9.72,154.9 -10.2,238.08l0 138.17 0 5.32z"/>
   <path class="fil0" d="M21296.63 8561.67c-211.52,0 -267.14,-348.31 -267.14,-507.54 0,-275.39 30.01,-845.88 391.79,-845.88 116.7,0 208.37,77.08 255.39,172.01 153.42,309.73 54.94,1019.17 -252.61,1148.56 -26.24,11.05 -96.45,32.85 -127.43,32.85zm-1041.79 -810.27c-87.42,0 -148.18,-92.62 -58.84,-210.22 158.59,-208.73 664.32,-392.53 664.32,32.13 0,167.15 -118.44,373.81 -188.74,479.08 -54.31,81.32 -260.71,342.72 -274.27,393.53 140.4,-11.68 395.92,-152.52 480.82,-98.06 39.5,25.34 35.62,58.22 35.62,98.06 0,129.24 -284.58,189.7 -406.05,217.23 -122.13,27.69 -111.68,32.08 -235.05,32.08 -61.22,0 -133.56,-83.95 -133.56,-142.46 0,-114.73 27.98,-186.47 100.37,-282.51 121.03,-160.59 380.45,-449.34 380.45,-634.62 0,-98.52 -119.33,-92.86 -220.63,10.88 -40.22,41.18 -66.26,104.88 -144.44,104.88zm1602.75 -400.68c0,-162.78 430.5,-451.13 647.85,-273.9 176.95,144.29 -42.78,555.56 -118.94,669.25 -47.03,70.21 -89.4,131.55 -140.89,197.46 -38.06,48.71 -124.95,149.46 -138.72,208.56l208.15 -58.98c124.93,-42.27 308.3,-121.48 308.3,50.07 0,22.72 -18.77,61.34 -30.14,76.71 -12.52,16.89 -42.09,35.47 -60.63,46.22 -93.78,54.34 -420.03,135.28 -532.53,135.28 -64.29,0 -102.73,-33.65 -127.88,-76.91 -31.71,-54.57 -36.93,-97.81 -17.9,-166.79 37.19,-134.71 164.81,-281.03 251.47,-389.65 33.51,-42.02 59.32,-78.72 91.57,-122.13 45.42,-61.16 132.2,-208.62 132.2,-304.1 0,-101.26 -110.32,-82.52 -191.03,-21.86 -67.25,50.54 -49,63.28 -83.42,94.66 -74.09,67.55 -197.46,42.39 -197.46,-63.89zm1148.63 284.92c41.87,-0.93 210.55,-49.15 267.12,-62.33 0,-69.12 36.85,-213.36 58.96,-279.4 20.62,-61.57 57.09,-192.51 154.74,-192.51 51.09,0 97.94,38.29 97.94,89.04l-69.53 251.01c-27.35,109.85 -53.36,302.39 -63.56,426.17 -4.54,55.1 4.51,111.87 -2.9,166.28 -5.46,40.06 -1.75,105.66 -20.6,139.67 -53.3,96.14 -226.29,91.5 -226.29,-12.59 0,-122.16 26.71,-277.25 26.71,-338.35 -192.34,44.81 -507.53,186.24 -507.53,-71.23 0,-107.64 181.78,-389.94 234.32,-478.01 51.51,-86.35 117.4,-193.99 151.9,-293.3 10.23,-29.43 11.81,-37.03 26.76,-62.29 69.48,-117.53 219.22,-87.66 219.22,23.32 0,100.86 -182.2,401.01 -253.08,521.59 -22.78,38.74 -84.18,135.48 -94.18,172.93zm-2537.69 -650c-167.98,0 -80.37,-218.09 -71.39,-400.85 11.02,-224.02 39.8,-332.74 53.59,-498.46 -40.38,27.04 -53.07,64.73 -126,66.02 -84.19,1.5 -105.5,-59.41 -105.5,-128.35 0,-24.92 31.32,-44.18 46.91,-59.94 100.2,-101.28 197.21,-403.08 380.48,-403.08 172.99,0 48.73,440.89 38.1,510.02 -11.04,71.77 -15.26,132.29 -25.43,206.07 -15.01,108.87 -41.56,539.1 -63.37,604.44 -20.91,62.64 -80.54,104.13 -127.39,104.13zm641.11 -721.23c32.11,-15.41 157.54,-42.22 197.78,-51.53 82.04,-19 55.49,20.39 92.31,-165.92 15.63,-79.1 30.83,-131.27 55.76,-193.54 34.29,-85.57 55.74,-123.26 152.78,-123.26 48.01,0 80.13,44.03 80.13,89.05l-73.52 255.92c-17.76,89.95 -36.72,192.88 -48.64,289.71 -6.17,50.17 -11.96,99.69 -11.49,148.79 0.65,66.8 -9.57,93.75 -8.9,160.28 0.7,69.68 5.09,100.03 -28.7,140.48 -56.35,67.42 -211.63,96.72 -211.63,-51.36 0,-122.81 25.38,-251.7 26.72,-311.64 -58.21,0 -115.62,24.33 -167.31,37.48 -115.8,29.49 -340.23,98.92 -340.23,-108.71 0,-153.61 267.63,-512.4 359.21,-718.19 22.32,-50.14 62.69,-198.93 166.14,-198.93 53.69,0 106.85,44.98 106.85,97.94 0,91.43 -152.5,350.26 -207.62,442.39 -28.48,47.63 -136.13,218.76 -139.64,261.04zm1673.97 -658.9c-280.98,0 -13.84,-427.4 373.97,-427.4 318.27,0 218.98,385.69 118.86,581.87 -80.94,158.63 -249.48,362.8 -368.18,540.05 159.39,0 428.45,-176.48 503.93,-76.53 53.12,70.34 -8.48,160.26 -65.51,194.39 -64.92,38.84 -256.46,87.11 -338.6,106.6 -44.7,10.62 -144.76,33.75 -197.76,33.75 -85.53,0 -160.27,-79.65 -160.27,-178.08 0,-177.3 260.24,-439.67 379.37,-617.89 224.61,-336.06 47.35,-418.66 -105.74,-266.02l-57.5 67.16c-17.51,19.59 -48.97,42.1 -82.57,42.1zm-934.93 1130.81c-205.84,0 -73.07,-228.99 -45.79,-295.1 157.25,-380.94 347.54,-774.02 501.03,-1155.14 83.14,-206.43 257.08,-119.65 257.08,-36.74 0,77.56 -42.84,141.76 -71.23,213.7 -26.05,66 -53.39,125.84 -83.17,192.84 -28.88,64.98 -50.1,122.92 -80.09,187.04l-331.54 763.67c-28.06,67.55 -59.57,129.73 -146.29,129.73zm-2867.13 302.74c0,439.34 86.87,949.82 272.94,1338.71 96.72,202.15 333.4,540.02 519.52,682.53l91.33 77.85c297.77,266.64 870.04,522.53 1265.62,622.07 508.85,128.04 1048.77,78.52 1533.65,-79.87 93.06,-30.4 181.79,-59.51 267.34,-97.74 45.76,-20.45 78.04,-35.97 121.81,-56.26l118.68 -59.41c126.44,-62.53 328.82,-202.32 436.63,-293.51 124.25,-105.09 251.8,-242.52 356.08,-365.16 64.87,-76.31 170.05,-232.08 222.53,-320.61 160.84,-271.32 306.12,-584.34 368.68,-895.7 132.1,-657.33 91,-1245.14 -211.55,-1846.97 -157.7,-313.67 -299.84,-525.74 -526.16,-782.75l-180.22 -167.03c-260.03,-200.27 -210.42,-166.82 -491.46,-336.64 -138.35,-83.6 -256.45,-119.94 -381.16,-179.78l651.15 -613.23c119.1,-94.47 238.64,-177.57 369.14,-263.05 27.53,-18.04 137.5,-86.28 169.4,-95.13 31.75,-8.8 13.31,5.13 44.5,-19.71 56.33,-44.87 147.71,-78.95 172.65,-113 -67.84,-32.54 -194.28,-72.16 -270.31,-94.74 -471.57,-140.07 -907.08,-189.58 -1407.43,-96.01 -75.24,14.07 -133.28,28.99 -204.85,44.48 -315.69,68.32 -475.7,156.57 -740.36,265.79 -63.81,26.33 -108.58,57.51 -170.08,88.15 -55.65,27.72 -104.8,59.17 -158.08,91.22 -222.98,134.11 -543.53,365.3 -723.91,540.49l-324.26 307.93c-23.32,29.25 -31.69,39.18 -58.78,65.88 -164.43,161.99 -406.08,508.91 -533.66,721.82 -308.67,515.14 -599.38,1224.9 -599.38,1929.38z"/>
   <path class="fil0" d="M11528.8 6246.6l-17.81 0c-16.45,-70.61 -215.52,-466.66 -249.31,-534.24 -70.58,-141.17 -121.89,-246.07 -254.38,-333.3 -154.76,-101.89 -404.25,-41.23 -517.68,95.48 -76.51,92.23 -126.65,168 -171.9,282.22 -137.78,347.86 -117.99,874.44 -107.01,1273.68 1.16,42.31 6.82,72.98 9.26,124.31 11.96,251.54 142.83,1141.05 252.65,1287.75 79.06,105.62 226.06,108.88 337.72,59.61 79.07,-34.88 146.04,-108.43 183.84,-181.22 66.88,-128.82 22.59,-222.61 -10.35,-353.97 -66.86,-266.67 -137.59,-853.64 -140.3,-1124.09 -0.51,-50.49 -9.48,-61.54 -9.55,-115.1 -0.07,-41.62 0.3,-83.32 0.3,-124.97 0,-86.07 0,-172.14 0,-258.22 38.52,13.95 111.23,220.09 127.64,255.23 61.41,131.42 179.88,436.09 238.97,526.79 145.65,223.58 383.13,199.41 511.26,33.52 60.15,-77.87 96.47,-123.48 135.97,-220.19l255.63 -625.89c66.45,-159.63 210.15,-435.1 308.32,-582.08 26.02,-39 46.2,-65.64 74.57,-103.52 27.72,-37.02 47.65,-69.83 83.94,-94.13 120.69,228.09 -22.33,1167.54 -61.85,1460.75 -35.12,260.66 -85.4,520.87 -117.82,790.39 -5.08,42.2 -11.87,84.16 -17.82,133.56 -11.41,94.86 -39.42,201.39 33.18,308.38 126.24,186.06 487.06,59.03 540.62,-161.97 12.36,-51.03 19,-131.75 28.24,-194.37l162.59 -1173.03c64.54,-442.42 172.95,-1130.69 -38.68,-1549.7 -101.09,-200.13 -234.08,-272.91 -457.23,-272.91 -176.78,0 -320.76,111.36 -411.81,202.56l-151.44 160.21c-25.83,28.91 -43.03,53.43 -66.49,84.88 -23.72,31.79 -44.92,61.18 -66.64,93.63 -84.23,125.82 -160.45,255.58 -229.64,393.65 -28.87,57.59 -182.92,387.34 -186.99,436.3z"/>
   <path class="fil0" d="M6221.95 20466.49c-422.62,0 -420.41,-96.67 -578.78,-133.57 0,-197.44 8.91,-370.51 8.91,-560.96 72.3,-1.61 141,-17.81 284.93,-17.81 139.8,0 309.21,51.45 391.93,106.7 120.4,80.43 204.65,168.06 204.65,329.61 0,166.88 -168.61,276.03 -311.64,276.03zm-569.87 -1255.49c3.38,-40.52 31.87,-142.11 43.36,-179.25 78.39,-253.36 200.19,-558.55 386.23,-744.59 237.01,-237.01 514.25,-206.69 514.25,33.43 0,138.32 -63.11,250.37 -134.74,346.09 -58.34,77.98 -153.47,164.9 -230.23,223.88 -118.04,90.69 -281.31,184.68 -415.62,252.19 -32.01,16.08 -131.01,65.57 -163.25,68.25zm-44.52 -1104.11c0,-175.53 -203.15,-286.16 -331.76,-261.13 -63.55,12.37 -112.36,29.25 -156.25,66.96l-40.33 39.8c-40.84,46.41 -86.04,133.64 -86.04,216.7 0,745.11 -26.45,1654.75 90.2,2349.53 24.42,145.44 62.46,290.44 104.48,429.76 64.11,212.55 317.57,232.12 455.52,132.57 29.66,-21.4 78.55,-59.65 88.84,-98.16 60.88,1.36 166.16,35.62 338.35,35.62 407.14,0 829.4,-175.1 1012.3,-483.59 219.77,-370.63 138.12,-821.74 -241.32,-1053.14 -49.37,-30.1 -156.58,-98.09 -210.02,-110.54 14.8,-20.18 85.3,-71.86 112.04,-92.75 83.72,-65.42 195.48,-186.7 260.65,-273.6 82.97,-110.62 144.49,-209.45 189.41,-344.84 31.83,-95.91 61.19,-237.45 61.19,-366.2 0,-195.44 -79.75,-429.06 -175.66,-527.77 -349.67,-359.92 -848.56,-233.57 -1200.85,41.67 -60.96,47.64 -138.98,125.57 -186.98,186.99l-83.77 112.12z"/>
   <path class="fil0" d="M11582.23 17065.1c0,171.59 -3.68,474.03 9.37,631.73 12.66,152.95 3.89,346.83 16.88,499.58l-52.43 845.95c-5.6,41.64 -17.48,76.41 -18.35,115.21l-77.35 -118.53c-258.1,-435.37 -260.77,-527.49 -453.85,-961.91 -145.28,-326.85 -325.29,-905.18 -742.08,-905.18 -254.15,0 -457.17,307.05 -516.57,551.94 -47.25,194.85 -8.77,527.57 -8.77,756.98l8.55 926.38c0.63,51.43 9.69,67.11 9.46,124.1 -0.82,200.36 21.81,558.75 45.94,755.42 10.44,85.13 15.59,148.86 62.98,204.14 49.95,58.26 129.84,82.43 220.33,82.43 167.06,0 294.8,-154.79 320.16,-338.75 16.76,-121.68 -18.08,-325.4 -17.4,-462.65 0.33,-67.76 -9.16,-100.73 -9.23,-159.95 -0.16,-109.88 0.29,-219.85 0.3,-329.75 0.01,-115.55 -8.9,-201.68 -8.9,-320.55 0,-229.65 8.9,-429.26 8.9,-658.91l308.66 733.13c20.42,43.71 32.25,73.37 53.44,115.73 55.24,110.42 221.56,398.47 299.05,484.51 120.36,133.61 253.41,313.9 469.67,313.9 328.61,0 530.72,-336.74 610.73,-618.05 49.05,-172.46 81.7,-475.44 83.46,-682.29 1.17,-136.16 18.14,-269.64 18.14,-453.78 0,-97.51 6.71,-322.63 -2.43,-389.35 -11.63,-84.81 2.43,-195.13 -7.77,-286.06 -34.39,-306.22 79.5,-645.04 -129.26,-761.16 -212.13,-117.99 -501.63,70.72 -501.63,305.74z"/>
   <path class="fil0" d="M5990.43 14100.04c0,347.54 17.82,673.68 17.82,1006.16l0 436.3c0,177.7 -16.54,325.12 -37.16,497.09 -5.63,46.99 -24.1,113.53 -25.17,161.82 -71.59,-52.45 -277.62,-471.63 -335.9,-607.94 -98.14,-229.62 -358.09,-905.85 -521.33,-1125.94 -46.16,-62.25 -112.64,-136.97 -177.11,-179.05 -81.55,-53.21 -174.65,-78.93 -275.24,-64.58 -228.31,32.59 -400.53,275.22 -463.58,480.39 -19.76,64.31 -26.77,113.37 -38.35,193.15l12.87 1161.5c-0.1,86.7 9.11,137.32 8.92,222.6 -0.18,76.52 -4.11,165.4 -0.05,240.46l37.01 666.41c13.27,127.1 15.82,312.32 105.1,375.72 220.17,156.36 516.83,-5.84 516.83,-356.56 0,-118.23 -18.68,-211.31 -17.92,-320.43 0.77,-111.3 -8.79,-209.29 -8.79,-329.57l-8.9 -819.17c0,-138.62 8.9,-244.94 8.9,-382.88 10.15,11.66 3.35,0.32 14.01,21.61 3.51,6.99 10.76,26.38 12.82,31.7 166.18,426.74 367.5,959.95 665.03,1311.69 98.75,116.75 237.46,273.36 412.25,273.36 168.62,0 255.47,-33.25 376.39,-148.96 202.56,-193.87 286.8,-495.27 318.14,-777.06 4.63,-41.57 7.39,-92.37 14.05,-137.32l30.76 -592.52c0.48,-337.67 -18.11,-655.39 -18.11,-979.77 0,-222.4 61.8,-587.67 -258.21,-587.67 -177.75,0 -365.08,156.86 -365.08,329.46z"/>
   <path class="fil0" d="M15847.3 8499.35c0,442.15 32.38,878.85 27.07,1309.26l-9.15 222.36c0.67,115.65 -40.4,439.52 -62.45,534.13 -27.39,-20.07 -59.3,-84.26 -80.13,-115.75 -62.47,-94.45 -101.01,-185.96 -144.2,-256.5 -34.68,-56.67 -95.45,-206.3 -125.96,-274.71 -131.34,-294.38 -337.39,-859.22 -510.77,-1091.98 -212.53,-285.33 -485.83,-330.96 -748.47,-48.68 -74.14,79.67 -150.21,236.33 -178.07,356.18 -22.52,96.91 -30.52,407.13 -18.62,513.01 17.65,157.18 7.6,354.4 7.6,526.64 -0.01,98.61 9.12,165.21 8.91,258.22 -0.2,89.03 0.09,178.09 -0.01,267.13 -0.21,168.14 17.37,347.56 17.51,516.74l39.58 494.66c12.43,90.02 15.68,148.52 65.12,202.01 51.04,55.22 127.75,77.69 216.15,77.69 192.42,0 329.45,-210.07 329.45,-391.78 0,-111.41 -26.97,-281.85 -26.7,-454.11 0.12,-88.95 -9.03,-142.56 -8.92,-231.51l0.01 -1202.05c1.23,1.78 2.81,2.57 3.27,5.62l199.02 486.6c36.04,83.45 65.22,161.68 103.36,243.89l53.32 115.86c49.04,105.91 194.66,338.26 260.67,433.86 28.87,41.79 51.14,60.89 80.01,98.07 201.29,259.14 474.33,385.92 749.73,145.62 57.89,-50.5 96.69,-90.2 144.52,-158.22 146.05,-207.72 220.44,-574.5 222.24,-828.45l27.01 -756.55c0,-204.02 -9.52,-378.78 -8.7,-578.99 0.24,-59.03 -9.34,-76.76 -9.41,-133.04 -0.15,-103.2 6.77,-383.04 -5.89,-448.22 -17.75,-91.41 -56.2,-131.81 -127.13,-166.71 -67.31,-33.13 -154.69,-41.01 -235.47,-12.39 -37.97,13.45 -67.28,28.39 -94.41,48.06 -94.42,68.45 -160.09,157.45 -160.09,294.03z"/>
   <path class="fil0" d="M16648.67 14117.84c-59.51,0 -147.2,-16.52 -186.98,-35.61 -2.77,-10.44 -8.91,-24.27 -8.91,-26.71 0,-412.24 146.38,-1323.61 331.17,-1512 49.78,-50.77 103.55,-43.25 142.56,5.39 91.36,113.9 143.78,374.44 168.65,525.87l69.95 856.08c-120.28,80.54 -318.24,186.98 -516.44,186.98zm-605.48 1308.91c287.55,0 391.78,-198.66 391.78,-480.83l0 -222.59c260.92,0 328.43,1.28 577.64,-81.26 40.11,-13.3 84.46,-33.77 125.79,-43.41 -16.9,72.55 -23.56,150.09 -41.02,226.1 -9.29,40.42 -15.43,68.93 -26.4,107.18 -120.61,420.8 334.41,499.52 519.96,226.12 63.16,-93.06 83.11,-224.68 106.22,-338.99 127.18,-628.94 80.82,-1613.41 -70.73,-2222.13 -21.7,-87.11 -46.5,-197.92 -78.37,-277.8 -71.28,-178.61 -116.8,-315.39 -265.02,-447.31 -169.75,-151.09 -375.65,-138.32 -569.23,-48.44 -37.05,17.19 -61.26,36.08 -93.75,57.61l-89.3 70.99c-52.12,45.92 -104.44,108.2 -146.7,164.94 -393.75,528.74 -494.44,1313.59 -527.84,1983.12 -1.93,38.71 -6.96,32.45 -8.95,71.18 -1.33,25.87 1.66,53.86 -0.44,79.7 -14.71,180.94 -26.63,598.89 -26.25,766.22 0.25,112.34 -12.61,205.41 29.25,282.42 30.35,55.83 111.47,127.18 193.36,127.18z"/>
   <path class="fil0" d="M17601.41 10030.86c-53.76,0 -222.6,8.9 -222.6,-62.34 0,-247.82 141.02,-1540.41 400.69,-1540.41 240.5,0 302.73,1099.84 302.73,1317.81 0,123.94 15.18,101.47 -92.76,165.46 -103.42,61.3 -260.27,119.48 -388.06,119.48zm-605.48 1317.8c126.5,0 232.2,-77.1 285.19,-151.11 101.09,-141.15 79.88,-358.12 79.88,-561.22 41.3,0.92 31.76,8.91 89.04,8.91 208.74,0 479.81,-62.35 614.39,-133.56 -8.44,36.22 -12.17,74.63 -18.96,114.6 -37.6,221.47 -133.14,383.36 -5.46,533.1 110.69,129.85 368.57,89.47 489.42,-102.57 49.79,-79.13 76.75,-235.63 98.28,-346.91 108.19,-559.09 79.09,-1323.88 -14.94,-1886.3 -27.34,-163.58 -85.63,-449.5 -142.51,-596.53 -88.29,-228.24 -234.57,-555.81 -557.2,-555.81 -484.81,0 -783.13,595.15 -916.13,989.36 -126.43,374.78 -135.04,563.89 -181.62,931.39 -4.54,35.85 -13.97,103.7 -15.25,145.02l-21.59 298.97c-11.86,78.87 -22.95,486.12 -22.95,609.24 0,148.92 -43.43,482.11 31.59,591.69 39.71,58 116.29,111.73 208.82,111.73z"/>
   <path class="fil0" d="M8287.7 19487.03c-44.38,0 -64.74,-4.05 -104.55,-11.2 -87.56,-15.72 -82.43,-17.99 -82.43,-77.85 0,-330.77 157.58,-1513.69 400.68,-1513.69 177.9,0 283.97,749.73 285.17,934.69 0.94,145.27 17.56,296.22 17.56,472.16 0,50.77 -318.07,195.89 -516.43,195.89zm-204.8 774.66l0 -169.18c249.84,0 341.03,0.41 579.98,-78.94 41.93,-13.93 85.31,-36.83 123.45,-45.72l-42.23 224.89c-22.74,114.58 -46.81,130.52 -46.81,255.93 0,280.54 387.63,326.23 545.14,73.22 95.04,-152.66 161.44,-671.54 167.49,-874.29 1.1,-37.13 -2.85,-79.02 0.16,-115.58 21.2,-256.02 2.98,-674.81 -30.99,-922.68 -51.4,-375.06 -141.09,-1125.46 -455.31,-1370.04 -107.12,-83.38 -154.4,-111.86 -297.72,-111.86 -574.63,0 -875.56,822.96 -984.79,1259.05 -85.68,342.08 -97.39,638.1 -135.83,986.09l-28.08 532.89c0.75,144.42 -20.77,660.75 2.81,727.44 109.08,308.58 590.75,153.32 593.91,-184.15 0.6,-64.45 8.82,-112.31 8.82,-187.07z"/>
   <path class="fil0" d="M8056.19 11687.02c-152.97,0 -134.69,-20.14 -213.7,-26.71 0,-223.66 1.94,-239.78 27.46,-462.27 16.68,-145.27 40.57,-281.07 66.69,-423.05 78.75,-427.98 291.52,-1055.86 476.8,-424.67 51.65,175.93 78.18,353.75 98.37,542.72l24.74 295.82c2.75,33.29 -0.3,72.75 0.11,106.73l9.26 213.34c-145.4,76.94 -281.64,178.09 -489.73,178.09zm-596.57 1317.81c149.04,0 265.89,-113.44 317.87,-216.38 49.9,-98.87 38.91,-233.12 38.17,-362.51 -0.33,-59.7 9.03,-81.49 9.03,-133.44 47.48,0 48.8,7.13 89.3,9.25l288.48 -32.16c95.99,-17.68 245.62,-64.12 316.74,-101.75 0,250.29 -176.21,476.09 -24.83,639.22 161.99,174.53 468.2,59.85 539.51,-204.67 15.33,-56.85 27.77,-105.48 39.66,-165.13 137.99,-692.13 91.55,-1648.08 -78.85,-2329.84 -74.91,-299.71 -237.45,-779.99 -617.96,-779.99 -373.31,0 -636.99,351.99 -783.69,649.86 -16.15,32.78 -34.28,74.1 -49.6,110.68 -143.63,342.89 -245.13,784.58 -270.51,1163.06 -8.91,132.83 -35.58,321.27 -35.92,444.9 -0.27,92.61 -18.41,209.29 -18.02,302.52 0.22,53.57 0.2,107.13 0.41,160.69 0.26,62.09 -9.59,86.49 -9.22,151.04 0.49,87.23 8.63,238.38 -2.32,318.24 -28.9,210.81 59.98,376.41 251.75,376.41z"/>
   <path class="fil0" d="M17797.3 17839.76c-33.25,0 -186.98,-8.39 -186.98,-53.42 0,-357.17 35.45,-571.98 104.56,-919.41 56.51,-284.04 253.13,-998.79 453.05,-403.96 73.49,218.66 109.08,535.82 127.54,762.88l18.27 426.93c-67.75,45.38 -143.58,93.26 -223.74,123.52 -74.29,28.05 -194.39,63.46 -292.7,63.46zm-587.67 1308.92c230.44,0 373.97,-172.21 373.97,-400.69l0 -302.74c218.94,0 368.7,-2.09 579.97,-78.95 37.45,-13.62 86.62,-37.12 123.46,-45.71 -14.17,170.34 -89.04,378.08 -89.04,463.01 0,269.92 333.84,360.34 535.79,108.4 135.36,-168.88 185.44,-877.23 185.44,-1114.56 0,-587.39 -24.57,-937.88 -147.83,-1481.63 -56.12,-247.58 -155.52,-546.27 -344.48,-706.2 -169.01,-143.05 -373.19,-137.59 -562.74,-42.56 -34.22,17.15 -66.62,35.33 -95.01,56.35 -64.7,47.89 -112.44,91.86 -161.47,150.17 -166.39,197.89 -192.78,247.19 -300.36,492.11 -32.57,74.15 -61.3,153.76 -87.67,232.89 -127.69,383.33 -153.21,665.27 -195.66,1068.72l-45.87 897.96c0,53.42 -0.07,106.85 0,160.27 0.16,129.42 -39.78,321.74 28,426.1 39.39,60.61 105.41,117.06 203.5,117.06z"/>
   <path class="fil0" d="M12570.58 10903.45c-252.42,0 -213.55,-33.33 -187.76,-339.13 20.53,-243.29 162.31,-1263.6 374.75,-1263.6 118.72,0 159.85,178.92 185.96,268.15 81.78,279.58 83.94,457.53 115.48,739.31l9.85 310.69c0.59,48.55 9.26,53.14 9.26,97.6 -72.98,48.87 -138.21,88.25 -223.77,123.5 -72.27,29.77 -184.57,63.48 -283.77,63.48zm-222.6 863.71l0 -258.23c200.78,0 255.86,7.45 455.93,-42.7 103.36,-25.9 213.98,-74.14 247.5,-81.95l-42.24 233.79c-17.5,88.2 -46.81,141.79 -46.81,238.13 0,316.11 498.07,370.81 607.29,-69.43 172.04,-693.49 139.72,-1728.79 -32.03,-2411.31 -24.24,-96.36 -45.15,-191.06 -79.19,-276.98 -62.58,-157.98 -131.64,-337.8 -268.18,-444.14 -197.81,-154.07 -374.48,-134.97 -590.09,-27.48 -92.61,46.16 -99.47,70.97 -154.24,112.89 -59.85,45.82 -54.77,56.44 -91.29,95.71l-119.66 156.35c-269.92,448.21 -374.55,905.37 -428.64,1423.42l-53.63 676.52 -10.15 541.9c0.87,167.69 -49.89,360.5 45.4,488.74 102.22,137.56 343.93,129.3 482.67,-58.62 56.27,-76.22 77.36,-168.33 77.36,-296.61z"/>
   <path class="fil0" d="M6515.78 7938.39c-13.47,-57.82 -21,-185.25 -26.24,-249.8 -23.74,-292.31 -12.35,-619.23 78.41,-891.2 10.83,-32.45 18.15,-51.81 31.72,-84.03 11.62,-27.58 21.82,-55.16 34.74,-81.01 100.9,-201.68 259.93,-430.28 513.56,-430.28 169.18,0 222.61,223.58 222.61,373.98 0,414.87 -321.36,1015.16 -680.21,1251.99 -59.76,39.43 -112.65,77.57 -174.59,110.35zm-195.89 -1816.45c-14.83,-63.65 -34.13,-88.69 -77.64,-127.16 -114.73,-101.42 -406.79,-44.94 -498.5,156.51 -38.4,84.39 -19.79,139.95 -20.31,237.66 -0.49,88.49 -7.67,187.14 5.02,271l12.81 263.21c-1.26,136.9 45.29,619.93 60.68,767.4 35.75,342.34 121.21,962.02 223,1290.7l92.6 254.66c58.92,138.95 124.89,153.84 273.57,153.84 33.7,0 100.53,-24.29 124.8,-35.48 23.9,-11.05 81.25,-50.59 99.94,-69.25 22.42,-22.39 49.27,-64.8 62.97,-97.3 60.34,-143.17 15.82,-247.56 -12.87,-420.07l-52.24 -277.22c215.64,-114.1 323.81,-197.51 511.43,-343.37 92.58,-71.99 188.71,-174.4 274.5,-259.75 23.5,-23.39 28.6,-34.28 49.08,-57.77l99.97 -122.64c260.84,-363.67 427.35,-806.73 427.35,-1291.14 0,-347.36 -179.86,-704.18 -511.11,-797.78 -150.57,-42.55 -341.12,-30.18 -486.15,23.13 -275.11,101.1 -370.2,188.78 -563.19,380.65 -42.82,42.57 -65.37,79.86 -95.71,100.17z"/>
   <path class="fil0" d="M11021.27 14634.28c0,407.36 86.55,749.42 240.81,1005.76 149.2,247.95 436.65,499.04 747.54,499.04 241.89,0 418.93,-49.71 601.75,-181.82 137.74,-99.54 240.2,-218.63 335.09,-359.43 183.62,-272.47 336.45,-691.7 336.45,-1043.68 0,-213.59 -10.29,-478.44 -103.86,-652.98 -69.79,-130.17 -204.66,-246.35 -359.15,-246.35 -183.01,0 -219.46,5.17 -403.93,59.1l-398.83 144.33c-177.03,63.72 -288.98,379.07 -143.61,529.26 136,140.51 307.87,55.97 473.32,5.23l286.07 -87.91c2.16,97.62 17.8,162.94 17.8,320.55 0,261.98 -113.36,890.41 -480.82,890.41 -283.24,0 -447.41,-360.35 -496.51,-589.8 -55.3,-258.39 -45.49,-487.13 10.5,-742.09 20.05,-91.27 78.79,-264.48 123.75,-348.17 88.59,-164.92 282.15,-421.32 522.53,-421.32 119.88,0 258.99,168.41 487.75,-55.39 29.16,-28.52 59.95,-69 79.34,-107.66 91.15,-181.67 20.07,-358.08 -181.52,-436.22 -267.71,-103.77 -565.17,-14.23 -802.45,128.98 -222.49,134.29 -383.92,286.54 -539.68,493.19 -234.41,310.98 -352.34,764.12 -352.34,1196.97z"/>
   <path class="fil0" d="M12445.93 18311.69c0,356.33 67.48,712.32 245.45,1010.03 66.55,111.33 185.9,254.7 295.79,327.49 388.85,257.57 778.66,213.46 1135.4,-88.28 35.56,-30.08 62.29,-49.17 92.65,-85.43 163.88,-195.75 298.23,-405.97 382.16,-659.62 101.2,-305.87 110.19,-433.38 110.19,-753.51 0,-180.81 -54.54,-392.73 -118.63,-513.56 -67.39,-127.04 -214.6,-225.48 -406.71,-225.48 -199.89,0 -531,132.34 -728.95,205.98 -309.35,115.08 -314.82,701.27 125.63,597.56l478.67 -153.55c0,62.67 17.8,183.14 17.8,329.46 0,208.58 -46.21,406.14 -105.45,553.45 -53.67,133.43 -185.74,328.06 -339.76,328.06 -127.27,0 -199.21,-16.9 -296.22,-113.35 -406.61,-404.25 -341.1,-1388.32 89.16,-1821.12 276.17,-277.82 465.76,-107.6 550.96,-102.1 72.59,4.68 133.42,-16.83 192.3,-53.96 170.31,-107.36 249.6,-328.65 151.05,-475.49 -76.8,-114.42 -262.09,-176.45 -411.22,-176.45 -230.47,0 -478.16,113.52 -619.78,208.31l-237.17 181.32 -202.81 215.68c-204.3,269.27 -312.78,528.75 -368.8,877.78 -18.18,113.2 -31.71,263.45 -31.71,386.78z"/>
   <path class="fil0" d="M14244.56 14723.33zm-169.18 -1495.9l169.18 1495.9zm-169.18 -1495.9c0,-108.14 -7.19,-180.6 95.84,-242.52 131.67,-79.12 571.97,-81.16 571.97,73.35 0,158.92 -98.42,229.2 -172.94,325.69 -27.25,35.27 -80.81,86.59 -114.11,117.39l-128.78 111.64c-255.86,216.39 -162.06,203.74 -225.23,-171.89 -11.44,-67.97 -26.75,-135.81 -26.75,-213.66zm169.18 1495.9l705.29 416.62c78.72,52.69 143.34,117.94 247.75,126.33 328.99,26.45 480.93,-404.69 295.07,-553.4 -193.18,-154.56 -478.02,-306.01 -708.06,-422.75l-246.21 -136.67c9.38,-35.17 28.6,-39.96 75.11,-76.25l252.11 -219.81c199.39,-200.04 476.34,-442.33 543.32,-721.07 88.3,-367.5 -181.69,-632.21 -478.89,-763.56 -304.69,-134.66 -747.65,-49.6 -1046.87,74.79 -326.67,135.81 -456,485.57 -406.81,844.63 6.59,48.07 -1.1,96.48 6.19,145.19l43.38 437.44c23.29,183.41 38.59,376.15 64.8,567.39 26.57,193.82 34.98,376.77 59.78,572.41 4.36,34.43 12.33,97.56 14.96,136.41l43.29 437.54c81.38,263.1 408.1,235.45 559.06,-13.9 57.88,-95.6 35.39,-152.12 30.22,-272.64 -4.1,-95.2 -22.77,-192.7 -26.71,-284.93 -4.35,-101.42 -26.78,-188.01 -26.78,-293.77z"/>
   <path class="fil0" d="M10059.62 10556.19c-7.35,-88.23 -24.08,-187.73 -36.08,-275.56 -45.83,-335.39 -130.56,-561.43 347.73,-561.43 204.32,0 384.22,67.09 238.78,292.21 -46.76,72.37 -54.13,70.96 -97.63,124.98 -76.41,94.92 -140.21,143.67 -219.17,217.13l-172.63 147.92c-24.34,19.56 -35.35,37.57 -61,54.75zm-676.71 -632.18c0,413.86 128.78,1285.9 169.42,1753.86 9.91,114.01 30.35,241.19 35.31,356.47l37.26 345.62c109.27,347.56 595,137.1 595,-158.69 0,-201.09 -62.33,-580.72 -62.33,-712.34 37.06,9.91 520.96,300.61 591.42,343.51l222.66 151.32c196.03,129.84 512.63,-3.95 512.63,-325.65 0,-63.06 -30.48,-128.14 -60.83,-161.77 -60.93,-67.49 -431.52,-289.52 -544.64,-345.77l-290.79 -154.42c-32.78,-17.9 -120.06,-63.39 -136.62,-85.98 14.8,-22.1 90.54,-78.28 115.83,-97.87l451.83 -429.68c23.32,-23.11 29.6,-29.37 50.48,-56.37 41.28,-53.36 99.86,-102.3 150.5,-187.85 31.11,-52.53 50.68,-87.78 74.83,-147.79 199.49,-495.8 -317.63,-914.7 -763.33,-914.7l-151.37 0c-249.25,0 -677.24,127.36 -819.26,311.57 -131.84,171.02 -178,278.86 -178,516.53z"/>
   <path class="fil0" d="M17574.7 4385.64l44.05 427.87c2.58,31.13 -0.75,66.25 0.18,97.76 1.91,65.2 9.19,73.93 9.19,186.7 0,331.1 -44.73,678.21 -119.5,940.09 -19.39,67.92 -43.56,137.25 -68.62,198.5l-87.89 179.23c-100.15,186.42 -315.95,377.99 -459.5,138.93 -239.13,-398.22 -56.4,-1453.35 12.99,-1876.53 26.96,-164.34 76.91,-301.33 -54.17,-424.07 -146.46,-137.15 -445.79,-23.71 -515.7,183.64 -19.37,57.45 -32.77,161.15 -44.48,231.55 -92.11,554 -213.65,1333.82 -96.05,1914.99 40.95,202.31 107.61,374.91 224.39,532.48 254.06,342.8 680.63,336.96 1003.81,109.34 398.73,-280.82 566.48,-655.02 706.51,-1136.64 59.84,-205.8 109.2,-566.89 121.54,-795.58 2.62,-48.45 -1,-102.61 -0.4,-151.77 0.68,-54.1 9.93,-86.8 9.6,-151.29l-26.37 -427.8c-14.88,-190.98 -24.67,-506.86 -276.7,-506.86 -189.75,0 -382.88,186.8 -382.88,329.46z"/>
   <path class="fil0" d="M8180.85 7315.1c0,345.04 16.68,702.86 103.36,965.13 48,145.27 135.32,319.96 256.4,411.41 79.48,60.04 213.81,106.33 305.69,99.27 189.2,-14.52 389.59,-161.86 516.42,-285.05 26.18,-25.44 44.17,-34.48 71.47,-62.1 102.56,-103.72 239.36,-247.5 348.11,-328.59 64.3,-47.93 90.07,-62.34 133.32,-133.8 181.5,-299.88 -53.41,-662.6 -415.3,-415.3l-168.61 134.14c-18.23,17.37 -21.37,17.82 -39.09,32.13 -17.39,14.04 -25.53,23.14 -43.22,36.93 -169.91,132.41 -369.99,315.21 -416.12,-20.3l-29.15 -282.51c30.77,-7.16 77.62,-31.91 108.13,-43.25 254.81,-94.76 444.12,-40.37 572.5,-228.87 152.55,-223.97 62.1,-538.16 -155.28,-538.16 -93.16,0 -451.41,93.47 -516.44,124.67 0,-67.4 9,-111.37 8.91,-186.99 -0.08,-68.26 0,-136.52 0,-204.8 -0.02,-155.97 -10.53,-258.21 178.08,-258.21 354.63,0 544.59,191.19 754.26,-56.02 113.79,-134.14 151.39,-370.65 8.07,-483.71 -118.81,-93.72 -523.23,-145.89 -682.19,-145.89 -214.85,0 -397.65,69.83 -522.92,162.7 -192.93,143.02 -347.19,449.23 -350.04,691.74 -0.66,56.32 0.74,113.42 0.66,169.83 -0.08,60.16 -9.38,98.96 -9.22,168.87 0.55,238.8 -17.8,441.85 -17.8,676.73z"/>
   <path class="fil0" d="M9008.94 14999.35c0,203.95 11.59,536.26 45.66,737.9 12.04,71.25 31.43,151.73 51.14,215.98 57.49,187.31 146.46,373.11 313.03,470.54 229.9,134.44 449.06,37.5 640.85,-106.6l216.06 -184.64c104.91,-105.45 230.39,-239.76 343.61,-324.2 66.57,-49.64 85.89,-60.85 131.35,-135.77 98.49,-162.31 87.39,-486.23 -210.19,-486.23 -152.19,0 -296.37,144.4 -385.54,219.95 -57.36,48.58 -108.65,88.32 -169.06,133.69 -200.78,150.81 -285.7,147.59 -323.17,-99.16 -14.56,-95.86 -21.56,-173.77 -21.56,-281.19 47.51,-11.06 118.97,-47.48 235.02,-76.62 85.84,-21.55 174.88,-29.86 258.12,-53.52 310.73,-88.34 365.95,-671.23 5.5,-671.23 -95.09,0 -431.15,92.29 -498.64,124.67 0,-60.54 9.08,-99.31 8.92,-169.17l3.25 -352.92c27.52,-179 213.93,-136.46 386.01,-107.59 232.34,38.98 375.38,112.97 539.01,-71.51 111.97,-126.24 162.05,-352.15 13.56,-489.97 -105.66,-98.09 -556.45,-144.47 -719.23,-144.47 -376.15,0 -659.4,236.54 -778.12,575.32 -25.44,72.61 -56.61,189.87 -59.17,279.18 -3.26,113.9 4.16,228.93 -7.3,331.05l-19.11 666.51z"/>
   <path class="fil0" d="M18028.81 12987.02c0,139.39 57.08,317.3 128.37,432.59 230.52,372.72 510.51,420.68 795.9,610.94 223,148.67 155.89,247.57 -87.28,247.57l-240.72 0.3c-53.48,-0.07 -64.55,-8.91 -115.1,-9.56 -111.53,-1.45 -134.39,0.39 -211.34,38.68 -191.76,95.44 -261.22,342.39 -140.47,500.12 76.16,99.49 204.74,94.23 333.86,93.55 69.15,-0.37 124.76,9.1 204.59,9.1 396.77,0 900.65,-138.93 1060.98,-541.77 22.63,-56.87 53.6,-133.72 60.33,-206.79 20.94,-227.42 -67.35,-408.58 -244.82,-546.43 -295.92,-229.84 -665.71,-315.44 -812.6,-531.92 -132.99,-196.01 -69.54,-386.96 63.19,-565.87 53.1,-71.58 100.68,-124.84 168,-179.27 234.04,-189.17 234.47,-105.25 378.07,-191.79 252.55,-152.17 228.04,-483.48 20.59,-556.63 -213.73,-75.38 -631.42,194.76 -807.38,357.51 -184.56,170.72 -404.7,458.77 -486.33,706.82 -33.7,102.37 -67.84,220.3 -67.84,332.85z"/>
   <path class="fil0" d="M14930.18 17403.47c0,283.79 68.48,420.66 223.84,613.13 57.8,71.61 106.31,115.63 183.17,173 211.7,157.98 216.75,125.39 349.45,202.61 73.84,42.97 303.12,161.49 303.12,257.83 0,107.51 -345.09,88.63 -436.41,89.16 -118.94,0.68 -226.13,-40.33 -356.34,26.31 -259.76,132.96 -253.14,456.39 -83.07,555.57 78.61,45.83 198.43,37.52 315.16,41 154.11,4.6 138.31,18.54 327.85,-1.01 101.23,-10.44 206.38,-30.65 299.07,-57.1 180.36,-51.48 323.99,-122.87 452.54,-250.89 99.54,-99.12 211.34,-315.09 211.34,-509.89 0,-172.33 -97.31,-336.56 -219.86,-439.04 -278.12,-232.57 -510.43,-279.38 -694.84,-418.18 -266.6,-200.65 -296.5,-426.41 -86.39,-704.83 87.92,-116.48 241.21,-275.69 388.37,-315.06 76.13,-20.37 114.99,-25.51 172.76,-67.65 313.74,-228.92 145.21,-566.2 -76.48,-566.2 -122.01,0 -365.73,117.55 -473.66,185.24 -156.99,98.47 -318.33,240.01 -433.4,385.77 -108.23,137.08 -113,143.36 -204.25,294.4 -64.62,106.96 -161.97,339.69 -161.97,505.83z"/>
   <path class="fil0" d="M5162.35 11286.33c0,341.48 198.57,592.85 400.58,748.06 205.1,157.57 386.87,206.14 526.88,310.11 54.81,40.71 132.14,85.41 132.14,161.69 0,89.55 -326.92,96.65 -429.84,82.58 -42.91,-5.87 -83.89,0.39 -127.37,-6.19 -342.77,-51.87 -533.63,306.75 -390.55,515.22 25.87,37.69 75.45,84.81 124.9,97.69 63.67,16.58 353.21,23.04 448.88,23.04 372.87,0 802.7,-131.97 983.41,-432.35 151.45,-251.73 184.07,-553.29 -41.72,-776.47 -294.14,-290.73 -513.32,-287.16 -804.5,-513.3 -50.78,-39.44 -88.52,-89.51 -121.34,-145.8 -177.62,-304.64 197.55,-703.2 408.29,-806.58 64.49,-31.64 137.96,-36.82 198.68,-68.44 211.08,-109.92 275.22,-362.89 154.23,-500.55 -122.69,-139.57 -293.82,-86.13 -450.19,-18.01 -103.08,44.89 -133.35,65.4 -220.52,117.83 -159.89,96.15 -277.74,214.73 -398.1,349.86 -193.36,217.07 -393.86,558.34 -393.86,861.61z"/>
   <path class="fil0" d="M6827.42 13877.43c0,117.44 80.46,257.14 249.46,258.09 50.53,0.27 62.13,9.25 115.51,9.55 67.36,0.37 246.72,-18.32 365.17,-18.32l0 2600c0,61.3 36.91,127.87 76.14,155.36 210.8,147.66 445.63,-25.86 499.14,-149.95 53.09,-123.14 30.2,-338.43 30.2,-504.03 0,-705.3 6.49,-1435.81 -0.78,-2137.78 -0.75,-72.16 5.12,-56.86 66.65,-66.92 40.62,-6.63 77.15,-14.06 113.47,-20.08 160.87,-26.73 283.71,-31.28 378.13,-156.12 84.5,-111.72 107.92,-287.2 20.28,-405.08 -99.18,-133.42 -268.37,-71.78 -426.37,-45.54l-741.48 104.42c-116.87,15.33 -412.35,-1.14 -515.4,45.56 -113.28,51.34 -230.12,170.18 -230.12,330.84z"/>
   <path class="fil0" d="M14921.27 7715.78c310.47,0 281.26,-29.7 525.97,-79.52 144.92,-29.51 271.84,-19.08 370.78,-136.74 196.79,-234.03 84.19,-504.97 -148.81,-504.97 -424.72,0 -658.95,271.53 -658.95,-302.75 0,-73.03 9.47,-109 9.08,-177.96 -0.77,-133.84 9.07,-234.94 8.77,-365.2l43.23 -971.85c3.49,-31.56 -0.89,-63.76 2.61,-95.33 12.02,-108.54 13.19,-231.99 29.16,-344.81l31.86 -342.11c0,-205.8 -427.2,-340.13 -575.19,30.29 -27.32,68.38 -39.53,155.6 -47.28,237.65l-37.11 390.29c-11.86,152.13 -32.81,384.23 -34.59,535.28 -0.61,52.24 -9.71,73.15 -9.38,133.09 1.4,242.18 -26.73,575.57 -26.59,819.3l8.65 543.4c11.9,140.71 39.87,219.94 95.19,332.2 47.32,96.04 114.02,165.87 202.35,225.06 51.27,34.36 129.97,74.68 210.25,74.68z"/>
   <path class="fil0" d="M20067.85 14153.46c0,148.44 -26.28,351.01 60.77,428.96 133.59,119.62 380.98,54.35 491.55,-99.24 78.05,-108.4 47.71,-228.58 52.87,-401.24 1.35,-44.83 8.96,-49.3 9.55,-97.3 1.08,-87.44 -6.53,-282.4 2.08,-345.19l24.49 -652.22c-0.33,-79.36 -0.09,-148.55 7.39,-215.21 7.4,-65.86 -1.04,-152.86 1.01,-221.59l9.19 -222.31c-0.09,-84.28 9.24,-132.43 8.94,-213.68 -0.28,-77.17 0.23,-154.38 -0.05,-231.56 -0.48,-127.44 30.21,-314.98 -12.07,-424.19 -76.5,-197.61 -435.25,-172.01 -558.16,67.67 -49.18,95.92 -35.23,274.28 -35.23,418.88l-8.61 552.34c-1.37,45.59 -9.43,54.76 -9.5,106.26 -0.11,82.3 0.55,154.33 -7.3,224.21 -15.29,136.17 5.61,308.32 -12.64,441.46 -8.78,64.11 -5.16,139.62 -6.12,216.5 -0.61,49.45 -9,56.69 -9.61,106.13l-8.55 561.32z"/>
   <path class="fil0" d="M3399.34 17581.55c108.39,0 221.22,-69 276.49,-124.19 116.14,-115.98 89.34,-313.6 88.55,-525.84 -0.28,-77.62 9.25,-118.22 8.96,-195.84l8.84 -498.7c2.13,-39.61 8.72,-42.72 9.29,-88.64 0.77,-62.01 -5.69,-144.71 0.95,-203.85l25.35 -793.83c-0.38,-75.24 9.15,-117.1 8.98,-195.82l-0.02 -480.83c0,-283.51 -430.58,-278.8 -567.1,-23.95 -62.91,117.45 -35.79,404.93 -38.02,585.27 -0.62,50.53 -9.49,61.59 -9.56,115.09 -0.1,71.17 6.94,181.03 -2.13,247.18 -18.72,136.52 -7.09,330.65 -15.33,483.31 -2.3,42.67 -9.38,61.35 -9.07,115.59l-8.49 365.47c-1.39,46.4 -9.63,60.7 -9.41,115.25l-8.69 365.29c0,76.02 5.58,175.68 -0.47,248.84 -11,132.91 -36.78,328.15 60.15,421.61 36.9,35.57 112.37,68.59 180.73,68.59z"/>
   <path class="fil0" d="M13425.38 7608.93c0,99.6 -11.81,219.23 69.47,286.7 143.73,119.29 363.09,36.95 467.02,-79.66 141.66,-158.9 43.23,-517.62 83.04,-780.66l12.31 -530.85c0.59,-48 8.2,-52.46 9.55,-97.3 1.99,-66.65 -6.65,-147.46 2.14,-211.55 8.09,-59.06 6.77,-134.63 6.36,-207.35 -0.44,-74.73 9.04,-130.05 9.02,-213.58 -0.04,-144.74 9.64,-267.38 8.78,-418.61 -0.42,-73.24 9.08,-123.57 9.02,-204.67 -0.08,-138.98 25.7,-368.53 -64.07,-452.38 -91.36,-85.33 -240.29,-78.08 -348.69,-22.72 -210.36,107.42 -192.73,255.85 -192.72,448.38 0.02,141.21 -9.08,268.64 -8.9,418.49l-15.38 412.03c-9.05,66.05 1.22,135.45 -2.38,202.4l-17.85 409.56c0.19,81.11 -9.23,125.28 -8.94,204.76 0.54,145.83 -9.62,267.26 -8.76,418.64 0.42,73.22 -9.07,123.57 -9.02,204.67 0.04,71.23 0,142.47 0,213.7z"/>
   <path class="fil0" d="M21269.92 7920.57c0,96.25 10.19,373.97 89.03,373.97 139.19,0 230.72,-828.08 53.42,-828.08 -113.82,0 -142.45,365.86 -142.45,454.11z"/>
  </g>
 </g>
</svg>
